<svg width="1600" height="1200" viewBox="0 0 1600 1200" fill="none" xmlns="http://www.w3.org/2000/svg">
<defs><linearGradient id="bg" x1="90" y1="60" x2="1510" y2="1140" gradientUnits="userSpaceOnUse"><stop stop-color="#12182B"/><stop offset="1" stop-color="#070B15"/></linearGradient></defs>
<rect width="1600" height="1200" fill="url(#bg)"/>
<rect x="36" y="30" width="1528" height="1140" rx="34" stroke="white" stroke-opacity="0.08"/>
<rect x="72" y="60" width="1456" height="86" rx="28" fill="white" fill-opacity="0.035" stroke="white" stroke-opacity="0.08"/>
<text x="106" y="112" fill="white" font-size="24" font-weight="700" font-family="Inter, Pretendard, sans-serif">성경 하이퍼링크 컴패니언</text>
<rect x="1112" y="84" width="136" height="40" rx="20" fill="white" fill-opacity="0.03" stroke="white" stroke-opacity="0.08"/><text x="1180" y="109" text-anchor="middle" fill="white" font-size="16" font-weight="700" font-family="Inter, Pretendard, sans-serif">새 묵상 시작</text>
<rect x="1262" y="84" width="128" height="40" rx="20" fill="#E7C986"/><text x="1326" y="109" text-anchor="middle" fill="#111827" font-size="16" font-weight="800" font-family="Inter, Pretendard, sans-serif">스터디 데스크</text>
<rect x="1404" y="84" width="98" height="40" rx="20" fill="white" fill-opacity="0.03" stroke="white" stroke-opacity="0.08"/><text x="1453" y="109" text-anchor="middle" fill="white" font-size="16" font-weight="700" font-family="Inter, Pretendard, sans-serif">공부 레인</text>

<rect x="72" y="174" width="1456" height="174" rx="30" fill="white" fill-opacity="0.035" stroke="white" stroke-opacity="0.08"/>
<text x="110" y="220" fill="#E7C986" font-size="14" font-weight="700" font-family="Inter, Pretendard, sans-serif">GRAPH / V2</text>
<text x="110" y="268" fill="white" font-size="42" font-weight="800" font-family="Inter, Pretendard, sans-serif">하이퍼링크 지도</text>
<text x="110" y="312" fill="#C4CBD9" font-size="22" font-weight="500" font-family="Inter, Pretendard, sans-serif">화려한 네트워크보다 먼저 보여야 하는 건, 왜 여기서 저기로 읽어야 하는가입니다.</text>

<rect x="72" y="382" width="930" height="756" rx="30" fill="white" fill-opacity="0.035" stroke="white" stroke-opacity="0.08"/>
<text x="110" y="428" fill="#E7C986" font-size="14" font-weight="700" font-family="Inter, Pretendard, sans-serif">연결 경로</text>
<circle cx="536" cy="616" r="94" fill="#E7C986" fill-opacity="0.16" stroke="#E7C986" stroke-opacity="0.52" stroke-width="2"/>
<text x="536" y="604" text-anchor="middle" fill="white" font-size="30" font-weight="800" font-family="Inter, Pretendard, sans-serif">시편 13편</text>
<text x="536" y="640" text-anchor="middle" fill="#E6EAF2" font-size="20" font-weight="500" font-family="Inter, Pretendard, sans-serif">기다림 · 탄식 · 신뢰</text>
<path d="M536 520L330 420" stroke="white" stroke-opacity="0.26" stroke-width="3"/>
<path d="M536 708L320 844" stroke="white" stroke-opacity="0.26" stroke-width="3"/>
<path d="M628 610L838 510" stroke="white" stroke-opacity="0.26" stroke-width="3"/>
<rect x="190" y="344" width="188" height="110" rx="22" fill="#151D31"/><text x="214" y="386" fill="white" font-size="22" font-weight="700" font-family="Inter, Pretendard, sans-serif">하박국 2:1-4</text><text x="214" y="424" fill="#B5BED3" font-size="17" font-weight="500" font-family="Inter, Pretendard, sans-serif">기다리는 믿음</text>
<rect x="166" y="806" width="214" height="118" rx="22" fill="#151D31"/><text x="190" y="848" fill="white" font-size="22" font-weight="700" font-family="Inter, Pretendard, sans-serif">로마서 8:22-28</text><text x="190" y="886" fill="#B5BED3" font-size="17" font-weight="500" font-family="Inter, Pretendard, sans-serif">신음과 소망</text>
<rect x="790" y="456" width="184" height="110" rx="22" fill="#151D31"/><text x="814" y="498" fill="white" font-size="22" font-weight="700" font-family="Inter, Pretendard, sans-serif">마태복음 6장</text><text x="814" y="536" fill="#B5BED3" font-size="17" font-weight="500" font-family="Inter, Pretendard, sans-serif">염려에서 신뢰로</text>
<rect x="110" y="968" width="854" height="128" rx="24" fill="black" fill-opacity="0.18"/>
<text x="142" y="1010" fill="white" font-size="28" font-weight="700" font-family="Inter, Pretendard, sans-serif">지도는 장식이 아니라 읽기 순서를 설명해야 합니다.</text>
<text x="142" y="1052" fill="#B5BED3" font-size="18" font-weight="500" font-family="Inter, Pretendard, sans-serif">중심 본문 하나, 확장 노드 셋, 그리고 왜 연결되는지 짧은 레이블이면 충분합니다.</text>

<rect x="1030" y="382" width="498" height="756" rx="30" fill="white" fill-opacity="0.035" stroke="white" stroke-opacity="0.08"/>
<text x="1066" y="428" fill="#E7C986" font-size="14" font-weight="700" font-family="Inter, Pretendard, sans-serif">오른쪽 설명</text>
<rect x="1066" y="456" width="426" height="210" rx="24" fill="white" fill-opacity="0.03"/>
<text x="1096" y="496" fill="white" font-size="28" font-weight="700" font-family="Inter, Pretendard, sans-serif">읽는 경로</text>
<text x="1096" y="540" fill="#B5BED3" font-size="18" font-weight="500" font-family="Inter, Pretendard, sans-serif">1. 중심 서사/시 본문에서 시작
2. 연결 본문 2~3개로 확장
3. 스터디 데스크로 내려가 본문 전체 읽기</text>
<rect x="1066" y="690" width="426" height="164" rx="24" fill="white" fill-opacity="0.03"/>
<text x="1096" y="730" fill="white" font-size="28" font-weight="700" font-family="Inter, Pretendard, sans-serif">다음 단계</text>
<text x="1096" y="774" fill="#B5BED3" font-size="18" font-weight="500" font-family="Inter, Pretendard, sans-serif">그래프를 본 뒤 바로 스터디로 이동.
개인 적용은 그 다음입니다.</text>
<rect x="1066" y="878" width="426" height="220" rx="24" fill="black" fill-opacity="0.18"/>
<text x="1096" y="918" fill="white" font-size="28" font-weight="700" font-family="Inter, Pretendard, sans-serif">해석 경계선</text>
<text x="1096" y="962" fill="#B5BED3" font-size="18" font-weight="500" font-family="Inter, Pretendard, sans-serif">역사 노트에는 출처와 신뢰도 표시.
유대 전승과 기독교 해석은 구분.
개인 적용은 그래프의 출발점이 아니라 도착점.</text>
</svg>