<svg width="1800" height="1280" viewBox="0 0 1800 1280" fill="none" xmlns="http://www.w3.org/2000/svg">
<defs><linearGradient id="bg" x1="120" y1="70" x2="1700" y2="1210" gradientUnits="userSpaceOnUse"><stop stop-color="#13192D"/><stop offset="1" stop-color="#070B14"/></linearGradient></defs>
<rect width="1800" height="1280" fill="url(#bg)"/>
<text x="900" y="100" text-anchor="middle" fill="#F0D08D" font-size="56" font-weight="800" font-family="Inter, Pretendard, sans-serif">간소화한 서브페이지 UI 정리</text>
<text x="900" y="150" text-anchor="middle" fill="#BCC5D8" font-size="24" font-weight="500" font-family="Inter, Pretendard, sans-serif">메인 말고 나머지 화면도 모두 직관적으로 다시 묶은 버전</text>
<rect x="90" y="220" width="760" height="430" rx="28" fill="white" fill-opacity="0.04" stroke="white" stroke-opacity="0.08"/>
<text x="128" y="274" fill="#F0D08D" font-size="18" font-weight="700" font-family="Inter, Pretendard, sans-serif">COMPANION</text>
<text x="128" y="328" fill="white" font-size="36" font-weight="800" font-family="Inter, Pretendard, sans-serif">요약 → 본문 → 연결 → 질문</text>
<rect x="128" y="358" width="684" height="84" rx="22" fill="#151D31"/><text x="158" y="410" fill="white" font-size="26" font-weight="700" font-family="Inter, Pretendard, sans-serif">한 문장 응답이 맨 위, 본문 카드가 그 다음</text>
<rect x="128" y="470" width="328" height="132" rx="20" fill="white" fill-opacity="0.04"/><rect x="484" y="470" width="328" height="132" rx="20" fill="white" fill-opacity="0.04"/>
<text x="158" y="526" fill="#F0D08D" font-size="14" font-weight="700" font-family="Inter, Pretendard, sans-serif">핵심 본문</text><text x="514" y="526" fill="#F0D08D" font-size="14" font-weight="700" font-family="Inter, Pretendard, sans-serif">연결 본문</text>

<rect x="950" y="220" width="760" height="430" rx="28" fill="white" fill-opacity="0.04" stroke="white" stroke-opacity="0.08"/>
<text x="988" y="274" fill="#F0D08D" font-size="18" font-weight="700" font-family="Inter, Pretendard, sans-serif">STUDY</text>
<text x="988" y="328" fill="white" font-size="36" font-weight="800" font-family="Inter, Pretendard, sans-serif">본문 읽기 중심</text>
<rect x="988" y="358" width="684" height="180" rx="22" fill="#F8FAFC"/><text x="1028" y="414" fill="#1F2937" font-size="26" font-weight="700" font-family="Inter, Pretendard, sans-serif">본문은 크게, 길게, 먼저 읽히게</text>
<rect x="988" y="564" width="330" height="62" rx="18" fill="white" fill-opacity="0.04"/><rect x="1342" y="564" width="330" height="62" rx="18" fill="white" fill-opacity="0.04"/>
<text x="1020" y="604" fill="white" font-size="22" font-weight="700" font-family="Inter, Pretendard, sans-serif">이 본문이 하는 일</text><text x="1374" y="604" fill="white" font-size="22" font-weight="700" font-family="Inter, Pretendard, sans-serif">다음 읽기</text>

<rect x="90" y="710" width="760" height="430" rx="28" fill="white" fill-opacity="0.04" stroke="white" stroke-opacity="0.08"/>
<text x="128" y="764" fill="#F0D08D" font-size="18" font-weight="700" font-family="Inter, Pretendard, sans-serif">GRAPH</text>
<text x="128" y="818" fill="white" font-size="36" font-weight="800" font-family="Inter, Pretendard, sans-serif">왜 연결되는지 먼저</text>
<circle cx="382" cy="942" r="70" fill="#F0D08D" fill-opacity="0.18" stroke="#F0D08D" stroke-opacity="0.45"/><text x="382" y="950" text-anchor="middle" fill="white" font-size="24" font-weight="800" font-family="Inter, Pretendard, sans-serif">시편 13편</text>
<rect x="164" y="852" width="150" height="84" rx="18" fill="#151D31"/><rect x="456" y="852" width="180" height="84" rx="18" fill="#151D31"/><path d="M382 876L250 894" stroke="white" stroke-opacity="0.25" stroke-width="3"/><path d="M382 876L546 894" stroke="white" stroke-opacity="0.25" stroke-width="3"/>
<text x="128" y="1084" fill="#BCC5D8" font-size="22" font-weight="500" font-family="Inter, Pretendard, sans-serif">중심 본문 하나 + 확장 노드 셋 + 읽는 경로 설명</text>

<rect x="950" y="710" width="760" height="430" rx="28" fill="white" fill-opacity="0.04" stroke="white" stroke-opacity="0.08"/>
<text x="988" y="764" fill="#F0D08D" font-size="18" font-weight="700" font-family="Inter, Pretendard, sans-serif">LANES</text>
<text x="988" y="818" fill="white" font-size="36" font-weight="800" font-family="Inter, Pretendard, sans-serif">검색 + 칩 + 카드만</text>
<rect x="988" y="846" width="520" height="52" rx="26" fill="#F8FAFC"/><rect x="1524" y="846" width="148" height="52" rx="26" fill="#F0D08D"/>
<rect x="988" y="918" width="96" height="34" rx="17" fill="#F0D08D" fill-opacity="0.16" stroke="#F0D08D" stroke-opacity="0.35"/><rect x="1098" y="918" width="74" height="34" rx="17" fill="white" fill-opacity="0.04"/><rect x="1184" y="918" width="74" height="34" rx="17" fill="white" fill-opacity="0.04"/>
<rect x="988" y="982" width="320" height="116" rx="20" fill="#151D31"/><rect x="1332" y="982" width="320" height="116" rx="20" fill="white" fill-opacity="0.04"/>
<text x="988" y="1194" fill="#BCC5D8" font-size="22" font-weight="500" font-family="Inter, Pretendard, sans-serif">복잡한 설명보다 빠른 선택에 집중</text>
</svg>